<svg xmlns="http://www.w3.org/2000/svg">

  <!-- PHONE ICON -->
  <symbol id="icon-phone" viewBox="0 0 64 64">
    <path d="M44.97 2H19.03C17.015 2 15 3.936 15.001 5.871L15 58.129C15 60.064 17.015 62 19.03 62h25.94c2.016 0 4.03-1.936 4.03-3.871V5.871C49 3.936 46.985 2 44.97 2m-2.11 3.281c.521 0 .945.419.945.938c0 .517-.424.938-.945.938s-.943-.421-.943-.938a.94.94 0 0 1 .943-.938m-13.411.502h5.102c.157 0 .282.208.282.467c0 .26-.125.471-.282.471h-5.102c-.155 0-.282-.211-.282-.471c0-.258.127-.467.282-.467m6.093 52.701a.705.705 0 0 1-.709.703h-5.666a.705.705 0 0 1-.709-.703v-1.406c0-.389.317-.703.709-.703h5.666c.392 0 .709.314.709.703v1.406M46.167 54.5H17.833v-45h28.333v45z" />
    <path d="M20.593 16.531h3.125a.78.78 0 0 0 .782-.78v-3.125a.782.782 0 0 0-.782-.782h-3.125a.78.78 0 0 0-.78.782v3.125c0 .431.349.78.78.78" />
    <path d="M27.155 16.531h3.125a.78.78 0 0 0 .782-.78v-3.125a.782.782 0 0 0-.782-.782h-3.125a.78.78 0 0 0-.78.782v3.125c0 .431.35.78.78.78" />
    <path d="M33.718 16.531h3.125a.78.78 0 0 0 .782-.78v-3.125a.782.782 0 0 0-.782-.782h-3.125a.78.78 0 0 0-.78.782v3.125c0 .431.349.78.78.78" />
    <path d="M40.28 16.531h3.125a.78.78 0 0 0 .782-.78v-3.125a.782.782 0 0 0-.782-.782H40.28a.78.78 0 0 0-.78.782v3.125c0 .431.35.78.78.78" />
    <path d="M20.593 52.625h3.125a.78.78 0 0 0 .782-.78v-3.126a.781.781 0 0 0-.782-.781h-3.125a.78.78 0 0 0-.78.781v3.126c0 .43.349.78.78.78" />
    <path d="M27.155 52.625h3.125a.78.78 0 0 0 .782-.78v-3.126a.781.781 0 0 0-.782-.781h-3.125a.78.78 0 0 0-.78.781v3.126c0 .43.35.78.78.78" />
    <path d="M33.718 52.625h3.125a.78.78 0 0 0 .782-.78v-3.126a.781.781 0 0 0-.782-.781h-3.125a.78.78 0 0 0-.78.781v3.126c0 .43.349.78.78.78" />
    <path d="M40.28 52.625h3.125a.78.78 0 0 0 .782-.78v-3.126a.781.781 0 0 0-.782-.781H40.28a.78.78 0 0 0-.78.781v3.126c0 .43.35.78.78.78" />
    <path d="M20.593 34.578h3.125a.78.78 0 0 0 .782-.78v-3.126a.781.781 0 0 0-.782-.781h-3.125a.78.78 0 0 0-.78.781v3.126c0 .431.349.78.78.78" />
    <path d="M27.155 34.578h3.125a.78.78 0 0 0 .782-.78v-3.126a.781.781 0 0 0-.782-.781h-3.125a.78.78 0 0 0-.78.781v3.126c0 .431.35.78.78.78" />
    <path d="M33.718 34.578h3.125a.78.78 0 0 0 .782-.78v-3.126a.781.781 0 0 0-.782-.781h-3.125a.78.78 0 0 0-.78.781v3.126c0 .431.349.78.78.78" />
    <path d="M20.593 28.563h3.125c.433 0 .782-.35.782-.781v-3.124a.782.782 0 0 0-.782-.782h-3.125a.78.78 0 0 0-.78.782v3.124a.78.78 0 0 0 .78.781" />
    <path d="M27.155 28.563h3.125c.433 0 .782-.35.782-.781v-3.124a.782.782 0 0 0-.782-.782h-3.125a.78.78 0 0 0-.78.782v3.124c0 .431.35.781.78.781" />
    <path d="M33.718 28.563h3.125c.433 0 .782-.35.782-.781v-3.124a.782.782 0 0 0-.782-.782h-3.125a.78.78 0 0 0-.78.782v3.124a.78.78 0 0 0 .78.781" />
    <path d="M40.28 28.563h3.125c.433 0 .782-.35.782-.781v-3.124a.782.782 0 0 0-.782-.782H40.28a.78.78 0 0 0-.78.782v3.124c0 .431.35.781.78.781" />
    <path d="M20.593 22.548h3.125c.433 0 .782-.35.782-.782v-3.125c0-.43-.35-.78-.782-.78h-3.125a.78.78 0 0 0-.78.78v3.125a.78.78 0 0 0 .78.782" />
    <path d="M27.155 22.548h3.125c.433 0 .782-.35.782-.782v-3.125c0-.43-.35-.78-.782-.78h-3.125a.78.78 0 0 0-.78.78v3.125c0 .432.35.782.78.782" />
    <path d="M33.718 22.548h3.125c.433 0 .782-.35.782-.782v-3.125c0-.43-.35-.78-.782-.78h-3.125a.78.78 0 0 0-.78.78v3.125c0 .432.35.782.78.782" />
    <path d="M40.28 22.548h3.125c.433 0 .782-.35.782-.782v-3.125c0-.43-.35-.78-.782-.78H40.28a.78.78 0 0 0-.78.78v3.125c0 .432.35.782.78.782" />
  </symbol>
	
<!-- PUZZLE ICON -->
  <symbol id="icon-puzzle" viewBox="0 0 512 512">
  	<path d="M512,19.25c0-10.1-8.195-18.279-18.287-18.279H308.866v73.652c4.586-2.558,9.865-4.008,15.481-4.008
		c17.623,0,31.919,14.287,31.919,31.923c0,17.619-14.288,31.914-31.919,31.914c-5.616,0-10.895-1.458-15.481-3.999v73.644h73.652
		c-2.549,4.586-4.008,9.864-4.008,15.476c0,17.635,14.288,31.923,31.923,31.923c17.627,0,31.914-14.288,31.914-31.923
		c0-5.612-1.458-10.89-3.999-15.476H512V19.25z"/>
	<path d="M429.616,275.37h-92.794c-3.25,0-6.256,1.718-7.901,4.504l0.09-0.154l-0.106,0.171
		c-0.839,1.426-1.263,3.038-1.263,4.643c0,1.531,0.391,3.078,1.157,4.464l5.849,10.532c1.311,2.37,1.954,4.863,1.963,7.583
		c-0.008,4.203-1.621,8.08-4.586,11.062c-2.981,2.965-6.866,4.578-11.062,4.594c-4.203-0.017-8.088-1.629-11.078-4.594l0.012,0.017
		c-2.974-2.998-4.582-6.883-4.59-11.078c0.008-2.713,0.651-5.213,1.958-7.591l5.853-10.524c0.77-1.386,1.157-2.924,1.157-4.464
		c0-1.605-0.424-3.217-1.276-4.66c-1.649-2.793-4.655-4.504-7.9-4.504h-69.432v-37.184c12.548-0.196,24.4-5.14,33.278-14.035
		c9.09-9.066,14.125-21.227,14.116-34.072c0.008-12.862-5.03-25.023-14.116-34.081c-8.871-8.896-20.726-13.832-33.278-14.027V81.416
		c-0.004-5.066-4.11-9.172-9.176-9.172H34.548c-9.204-0.007-17.94,3.601-24.432,10.109C3.669,88.805,0.008,97.659,0,106.798v369.686
		c-0.008,9.196,3.608,17.928,10.116,24.428c6.452,6.443,15.293,10.108,24.432,10.117h369.726
		c9.115-0.008,17.961-3.674,24.404-10.117c6.509-6.5,10.117-15.224,10.109-24.428V284.542
		C438.788,279.476,434.682,275.37,429.616,275.37z M28.37,106.798c0-2.118,0.986-3.559,1.792-4.366
		c0.835-0.831,2.272-1.825,4.386-1.825h172.747v73.603c0,1.776,0.941,3.413,2.468,4.317c0.782,0.456,1.657,0.685,2.537,0.685
		c0.839,0,1.674-0.204,2.432-0.627l10.528-5.849c2.969-1.646,6.203-2.485,9.608-2.485c5.29,0,10.271,2.061,14.014,5.8
		c3.747,3.755,5.808,8.74,5.808,14.027c0,5.286-2.061,10.264-5.8,14.01c-3.751,3.747-8.732,5.808-14.022,5.808
		c-3.409,0-6.639-0.839-9.604-2.485l-10.536-5.849c-0.753-0.423-1.592-0.627-2.427-0.627c-0.88,0-1.756,0.228-2.537,0.693
		c-1.527,0.896-2.468,2.533-2.468,4.309v73.603h-45.575c0.09-1.133,0.134-2.264,0.134-3.38c0-11.77-4.582-22.824-12.894-31.124
		c-8.304-8.317-19.358-12.894-31.128-12.894c-11.766,0-22.819,4.578-31.12,12.886c-8.32,8.3-12.902,19.362-12.898,31.124
		c0,1.124,0.044,2.249,0.134,3.389H28.37V106.798z M207.296,482.666H34.548c-2.114,0-3.551-0.994-4.366-1.8
		c-0.826-0.831-1.812-2.273-1.812-4.382V303.725h73.599c1.772,0,3.413-0.937,4.313-2.46c0.9-1.532,0.925-3.422,0.062-4.969
		l-5.844-10.532c-1.65-2.974-2.485-6.207-2.489-9.604c0.004-5.287,2.07-10.271,5.8-14.019c3.758-3.738,8.74-5.808,14.022-5.808
		c5.282,0,10.264,2.07,14.01,5.8c3.743,3.755,5.808,8.74,5.812,14.018c-0.004,3.413-0.844,6.647-2.477,9.604l-5.857,10.532
		c-0.864,1.556-0.838,3.446,0.062,4.969c0.9,1.531,2.542,2.468,4.313,2.468h73.599v45.59c-1.133-0.089-2.26-0.13-3.376-0.13
		c-11.774,0-22.828,4.578-31.12,12.886c-8.324,8.308-12.902,19.362-12.894,31.124c-0.008,11.762,4.57,22.824,12.887,31.124
		c8.3,8.317,19.354,12.894,31.128,12.894c1.124,0,2.252-0.041,3.376-0.13V482.666z M410.424,476.484
		c0,2.109-0.993,3.543-1.808,4.366c-0.831,0.823-2.265,1.817-4.374,1.817H231.496v-73.603c0-1.776-0.936-3.413-2.468-4.309
		c-0.782-0.465-1.658-0.692-2.537-0.692c-0.835,0-1.674,0.204-2.428,0.627l-10.544,5.849c-2.961,1.645-6.191,2.484-9.6,2.484
		c-5.282,0-10.264-2.068-14.01-5.8c-3.743-3.747-5.808-8.732-5.812-14.019c0.004-5.294,2.07-10.271,5.808-14.018
		c3.744-3.739,8.724-5.808,14.015-5.816c3.385,0,6.618,0.839,9.6,2.484l10.54,5.857c0.758,0.424,1.592,0.628,2.432,0.628
		c0.879,0,1.755-0.229,2.537-0.684c1.527-0.904,2.468-2.542,2.468-4.318v-73.611h45.578c-0.089,1.132-0.134,2.265-0.134,3.388
		c-0.004,11.754,4.574,22.808,12.886,31.116c8.308,8.325,19.366,12.903,31.132,12.903c11.766,0,22.82-4.578,31.129-12.894
		c8.316-8.3,12.886-19.354,12.886-31.124c0-1.124-0.041-2.248-0.13-3.388h45.582V476.484z"/>
</symbol>

<!-- DASHBOARD ICON -->
<symbol id="icon-dashboard" viewBox="0 0 32 32">
  <polygon points="4 20 4 22 8.586 22 2 28.586 3.414 30 10 23.414 10 28 12 28 12 20 4 20"/>
  <rect x="24.0001" y="21" width="2" height="5"/>
  <rect x="20.0001" y="16" width="2" height="10"/>
  <rect x="16" y="18" width="2" height="8"/>
  <path d="M28,2H4A2.002,2.002,0,0,0,2,4V16H4V13H28.001l.001,15H16v2H28a2.0027,2.0027,0,0,0,2-2V4A2.0023,2.0023,0,0,0,28,2ZM12,11H4V4h8Zm2,0V4H28l.0007,7Z"/>
</symbol>

  <!-- LIGHTNING ICON -->
  <symbol id="icon-energy" viewBox="0 0 32 32">
    <path d="M26.9,15.7C26.8,15.3,26.4,15,26,15h-6l3.9-11.7c0.1-0.4,0-0.9-0.4-1.1c-0.4-0.3-0.8-0.2-1.2,0l-17,13
	c-0.3,0.3-0.5,0.7-0.3,1.1C5.2,16.7,5.6,17,6,17h6L8.1,28.7c-0.1,0.4,0,0.9,0.4,1.1C8.6,29.9,8.8,30,9,30c0.2,0,0.4-0.1,0.6-0.2
	l17-13C26.9,16.5,27.1,16.1,26.9,15.7z"/>
  </symbol>

  <!-- FINGERPRINT ICON -->
  <symbol id="icon-fingerprint" viewBox="0 0 32 32">
    <path d="M6.108 6.978c2.406-2.037 5.454-3.384 8.801-3.704l0.065-0.005c4.144 0.009 7.958 1.419 10.994 3.781l-0.040-0.030c0.201 0.145 0.453 0.231 0.725 0.231 0.69 0 1.25-0.56 1.25-1.25 0-0.419-0.206-0.789-0.522-1.016l-0.004-0.003c-3.345-2.626-7.616-4.212-12.257-4.212-0.1 0-0.201 0.001-0.301 0.002l0.015-0c-3.955 0.356-7.493 1.903-10.314 4.275l0.028-0.023c-0.289 0.231-0.472 0.583-0.472 0.978 0 0.69 0.56 1.25 1.25 1.25 0.297 0 0.57-0.104 0.785-0.277l-0.002 0.002zM28.924 11.158c-4.264-4.681-8.627-7.054-12.971-7.054h-0.046c-4.33 0.017-8.649 2.393-12.838 7.061-0.198 0.22-0.32 0.514-0.32 0.835 0 0.691 0.56 1.25 1.25 1.25 0.369 0 0.701-0.16 0.93-0.414l0.001-0.001c3.696-4.12 7.393-6.217 10.986-6.231h0.035c3.612 0 7.354 2.099 11.124 6.237 0.229 0.251 0.558 0.408 0.924 0.408 0.69 0 1.25-0.56 1.25-1.25 0-0.325-0.124-0.621-0.327-0.843l0.001 0.001zM22.805 27.199c-1.577-0.416-2.909-1.297-3.876-2.486l-0.011-0.014c-0.973-1.284-1.591-2.885-1.683-4.626l-0.001-0.021c-0.074-0.635-0.609-1.124-1.258-1.124-0.040 0-0.079 0.002-0.117 0.005l0.005-0c-0.634 0.067-1.124 0.599-1.124 1.245 0 0.044 0.002 0.087 0.007 0.129l-0-0.005c0.146 2.266 0.96 4.318 2.245 5.989l-0.019-0.026c1.312 1.614 3.097 2.797 5.143 3.34l0.069 0.016c0.092 0.025 0.198 0.039 0.308 0.039 0.001 0 0.002 0 0.003 0h-0c0 0 0 0 0 0 0.69 0 1.25-0.56 1.25-1.25 0-0.58-0.395-1.068-0.931-1.209l-0.009-0.002zM20.271 8.882c-1.306-0.522-2.819-0.825-4.403-0.825-0.612 0-1.214 0.045-1.801 0.132l0.066-0.008c-2.235 0.377-4.203 1.322-5.811 2.68l0.018-0.015c-2.327 1.907-3.993 4.542-4.653 7.554l-0.016 0.089c-0.095 0.447-0.171 0.896-0.237 1.447-0.030 0.333-0.047 0.721-0.047 1.112 0 3.082 1.054 5.919 2.82 8.168l-0.022-0.029c0.231 0.288 0.583 0.47 0.977 0.47 0.691 0 1.25-0.56 1.25-1.25 0-0.299-0.105-0.574-0.28-0.789l0.002 0.002c-1.405-1.783-2.253-4.062-2.253-6.538 0-0.326 0.015-0.649 0.043-0.967l-0.003 0.041q0.073-0.577 0.194-1.146c0.553-2.531 1.915-4.682 3.796-6.222l0.020-0.015c1.257-1.067 2.814-1.819 4.527-2.114l0.057-0.008c0.406-0.060 0.874-0.095 1.351-0.095 1.266 0 2.475 0.243 3.583 0.685l-0.065-0.023c2.963 1.144 5.228 3.524 6.192 6.49l0.021 0.073c0.512 1.656 0.637 4.609-0.32 5.656-0.127 0.139-0.457 0.516-1.488 0.297-0.652-0.176-1.212-0.507-1.658-0.951l0 0c-0.317-0.257-0.57-0.58-0.739-0.949l-0.007-0.016c-0.090-0.319-0.141-0.686-0.141-1.065 0-0.026 0-0.052 0.001-0.078l-0 0.004c0-0.004 0-0.008 0-0.012 0-0.606-0.083-1.193-0.237-1.75l0.011 0.046c-0.575-1.563-1.853-2.745-3.44-3.177l-0.036-0.008c-0.509-0.188-1.096-0.296-1.709-0.296-0.387 0-0.763 0.043-1.125 0.125l0.034-0.006c-1.013 0.294-1.869 0.862-2.51 1.618l-0.006 0.007c-0.739 0.771-1.271 1.746-1.502 2.833l-0.007 0.038c-0.012 0.171-0.019 0.37-0.019 0.572 0 2.353 0.929 4.489 2.439 6.062l-0.003-0.003c1.386 1.66 2.884 3.136 4.513 4.457l0.060 0.047c0.217 0.185 0.5 0.298 0.81 0.298 0.691 0 1.25-0.56 1.25-1.25 0-0.383-0.173-0.727-0.444-0.956l-0.002-0.002c-1.56-1.261-2.944-2.619-4.188-4.099l-0.038-0.046c-1.186-1.151-1.922-2.759-1.922-4.539 0-0.031 0-0.063 0.001-0.094l-0 0.005c0.154-0.645 0.47-1.201 0.902-1.643l-0.001 0.001c0.326-0.402 0.758-0.707 1.253-0.873l0.019-0.006c0.143-0.027 0.308-0.043 0.477-0.043 0.34 0 0.666 0.064 0.965 0.18l-0.018-0.006c0.837 0.199 1.51 0.769 1.847 1.522l0.007 0.017c0.076 0.308 0.119 0.661 0.119 1.025 0 0.019-0 0.038-0 0.056l0-0.003c-0 0.016-0 0.034-0 0.053 0 0.662 0.107 1.298 0.303 1.894l-0.012-0.043c0.321 0.778 0.801 1.433 1.403 1.949l0.007 0.006c0.761 0.734 1.714 1.274 2.776 1.538l0.042 0.009c0.321 0.098 0.69 0.154 1.072 0.154 1.098 0 2.087-0.464 2.783-1.206l0.002-0.002c1.83-2 1.502-6.018 0.863-8.082-1.222-3.778-4.034-6.738-7.627-8.133l-0.088-0.030zM9.769 20.703c0.050-1.916 0.957-3.611 2.349-4.723l0.013-0.010c0.537-0.457 1.154-0.843 1.823-1.13l0.047-0.018c0.743-0.325 1.609-0.514 2.519-0.514 1.013 0 1.971 0.235 2.824 0.652l-0.038-0.017c1.954 1.218 3.234 3.355 3.234 5.792 0 0.113-0.003 0.226-0.008 0.337l0.001-0.016c-0 0.003-0 0.006-0 0.009 0 0.656 0.532 1.188 1.188 1.188 0.041 0 0.082-0.002 0.122-0.006l-0.005 0c0.665-0.031 1.193-0.578 1.193-1.248 0-0.020-0-0.040-0.001-0.060l0 0.003c0.004-0.097 0.006-0.211 0.006-0.326 0-3.369-1.833-6.311-4.556-7.881l-0.044-0.023c-1.144-0.569-2.491-0.902-3.916-0.902-1.256 0-2.452 0.259-3.537 0.726l0.058-0.022c-0.964 0.41-1.795 0.928-2.531 1.554l0.014-0.011c-1.929 1.568-3.173 3.914-3.251 6.553l-0 0.013c0.122 4.085 1.926 7.725 4.74 10.27l0.012 0.011c0.224 0.214 0.528 0.346 0.863 0.346 0.69 0 1.25-0.56 1.25-1.25 0-0.355-0.148-0.676-0.386-0.904l-0-0c-2.336-2.079-3.84-5.047-3.98-8.369l-0.001-0.024z"/>
  </symbol>
	
<!-- INTEGRATION ICON -->
<symbol id="icon-integrate" viewBox="0 0 392 392">
			<path d="M368.62,17.951H23.568C10.57,17.951,0,28.524,0,41.52v309.146c0,12.996,10.57,23.568,23.568,23.568h345.053
				c12.994,0,23.564-10.572,23.564-23.568V41.52C392.188,28.525,381.614,17.951,368.62,17.951z M297.56,57.528
				c0-4.806,3.896-8.703,8.701-8.703h8.703c4.808,0,8.701,3.896,8.701,8.703v9.863c0,4.806-3.896,8.702-8.701,8.702h-8.703
				c-4.805,0-8.701-3.896-8.701-8.702V57.528z M257.093,57.528c0-4.806,3.898-8.703,8.703-8.703h8.701
				c4.805,0,8.703,3.896,8.703,8.703v9.863c0,4.806-3.898,8.702-8.703,8.702h-8.701c-4.805,0-8.703-3.896-8.703-8.702V57.528z
				 M363.903,345.951H28.282V102.235h335.621V345.951L363.903,345.951z M364.132,67.391c0,4.806-3.896,8.702-8.701,8.702h-8.703
				c-4.809,0-8.702-3.896-8.702-8.702v-9.863c0-4.806,3.896-8.703,8.702-8.703h8.703c4.806,0,8.701,3.896,8.701,8.703V67.391z"/>
			<path d="M84.185,233.284l63.084,29.336c1.631,0.755,3.367,1.138,5.162,1.138c2.338,0,4.617-0.664,6.598-1.924
				c3.547-2.267,5.666-6.13,5.666-10.334v-0.322c0-4.752-2.785-9.116-7.096-11.118l-39.455-18.332l39.455-18.334
				c4.311-2.004,7.096-6.367,7.096-11.117v-0.319c0-4.21-2.119-8.075-5.666-10.334c-1.961-1.253-4.246-1.916-6.605-1.916
				c-1.779,0-3.563,0.391-5.16,1.133l-63.08,29.333c-4.307,2.004-7.09,6.369-7.09,11.117v0.877
				C77.093,226.909,79.874,231.272,84.185,233.284z"/>
			<path d="M165.257,293.036c2.301,3.149,6.002,5.03,9.9,5.03h0.316c5.352,0,10.041-3.426,11.672-8.517L228.7,160.788
				c1.192-3.716,0.531-7.818-1.771-10.973c-2.301-3.15-6.002-5.03-9.901-5.03h-0.315c-5.354,0-10.048,3.425-11.679,8.516
				l-41.559,128.771C162.292,285.793,162.958,289.889,165.257,293.036z"/>
			<path d="M227.49,192.276c0,4.745,2.783,9.109,7.095,11.123l39.455,18.329l-39.455,18.33c-4.31,2.004-7.095,6.368-7.095,11.118
				v0.322c0,4.205,2.117,8.068,5.668,10.336c1.974,1.258,4.254,1.924,6.595,1.924c1.793,0,3.528-0.383,5.17-1.142l63.08-29.335
				c4.307-2.009,7.09-6.372,7.09-11.115v-0.877c0-4.748-2.783-9.113-7.094-11.117l-63.08-29.333
				c-1.591-0.74-3.373-1.131-5.152-1.131c-2.355,0-4.643,0.661-6.604,1.912c-3.551,2.263-5.67,6.127-5.67,10.337v0.318H227.49
				L227.49,192.276z"/>
</symbol>
	
  <!-- SCALING ICON -->
  <symbol id="icon-scale" viewBox="0 0 24 24">
    <path d="M7,17v4a1,1,0,0,1-1,1H3a1,1,0,0,1-1-1V17a1,1,0,0,1,1-1H6A1,1,0,0,1,7,17Zm7-3H11a1,1,0,0,0-1,1v6a1,1,0,0,0,1,1h3a1,1,0,0,0,1-1V15A1,1,0,0,0,14,14Zm8-4H19a1,1,0,0,0-1,1V21a1,1,0,0,0,1,1h3a1,1,0,0,0,1-1V11A1,1,0,0,0,22,10ZM20,7.24A1,1,0,1,0,22,6.76l-1-4h0l0-.09a1.34,1.34,0,0,0-.12-.24l-.08-.08a1,1,0,0,0-.19-.17s0,0,0,0l-.07,0A.9.9,0,0,0,20.2,2l-.14,0H16a1,1,0,0,0,0,2h2.13C13.8,9.69,5.9,11,3,11a1,1,0,0,0,0,2c3.16,0,11.71-1.44,16.57-7.61Z"/>
  </symbol>
</svg>
