<svg xmlns="http://www.w3.org/2000/svg" style="display:none;">

  <!-- PHONE ICON -->
  <symbol id="icon-phone" viewBox="0 0 64 64">
    <path d="M44.97 2H19.03C17.015 2 15 3.936 15.001 5.871L15 58.129C15 60.064 17.015 62 19.03 62h25.94c2.016 0 4.03-1.936 4.03-3.871V5.871C49 3.936 46.985 2 44.97 2m-2.11 3.281c.521 0 .945.419.945.938c0 .517-.424.938-.945.938s-.943-.421-.943-.938a.94.94 0 0 1 .943-.938m-13.411.502h5.102c.157 0 .282.208.282.467c0 .26-.125.471-.282.471h-5.102c-.155 0-.282-.211-.282-.471c0-.258.127-.467.282-.467m6.093 52.701a.705.705 0 0 1-.709.703h-5.666a.705.705 0 0 1-.709-.703v-1.406c0-.389.317-.703.709-.703h5.666c.392 0 .709.314.709.703v1.406M46.167 54.5H17.833v-45h28.333v45z" />
    <path d="M20.593 16.531h3.125a.78.78 0 0 0 .782-.78v-3.125a.782.782 0 0 0-.782-.782h-3.125a.78.78 0 0 0-.78.782v3.125c0 .431.349.78.78.78" />
    <path d="M27.155 16.531h3.125a.78.78 0 0 0 .782-.78v-3.125a.782.782 0 0 0-.782-.782h-3.125a.78.78 0 0 0-.78.782v3.125c0 .431.35.78.78.78" />
    <path d="M33.718 16.531h3.125a.78.78 0 0 0 .782-.78v-3.125a.782.782 0 0 0-.782-.782h-3.125a.78.78 0 0 0-.78.782v3.125c0 .431.349.78.78.78" />
    <path d="M40.28 16.531h3.125a.78.78 0 0 0 .782-.78v-3.125a.782.782 0 0 0-.782-.782H40.28a.78.78 0 0 0-.78.782v3.125c0 .431.35.78.78.78" />
    <path d="M20.593 52.625h3.125a.78.78 0 0 0 .782-.78v-3.126a.781.781 0 0 0-.782-.781h-3.125a.78.78 0 0 0-.78.781v3.126c0 .43.349.78.78.78" />
    <path d="M27.155 52.625h3.125a.78.78 0 0 0 .782-.78v-3.126a.781.781 0 0 0-.782-.781h-3.125a.78.78 0 0 0-.78.781v3.126c0 .43.35.78.78.78" />
    <path d="M33.718 52.625h3.125a.78.78 0 0 0 .782-.78v-3.126a.781.781 0 0 0-.782-.781h-3.125a.78.78 0 0 0-.78.781v3.126c0 .43.349.78.78.78" />
    <path d="M40.28 52.625h3.125a.78.78 0 0 0 .782-.78v-3.126a.781.781 0 0 0-.782-.781H40.28a.78.78 0 0 0-.78.781v3.126c0 .43.35.78.78.78" />
    <path d="M20.593 34.578h3.125a.78.78 0 0 0 .782-.78v-3.126a.781.781 0 0 0-.782-.781h-3.125a.78.78 0 0 0-.78.781v3.126c0 .431.349.78.78.78" />
    <path d="M27.155 34.578h3.125a.78.78 0 0 0 .782-.78v-3.126a.781.781 0 0 0-.782-.781h-3.125a.78.78 0 0 0-.78.781v3.126c0 .431.35.78.78.78" />
    <path d="M33.718 34.578h3.125a.78.78 0 0 0 .782-.78v-3.126a.781.781 0 0 0-.782-.781h-3.125a.78.78 0 0 0-.78.781v3.126c0 .431.349.78.78.78" />
    <path d="M20.593 28.563h3.125c.433 0 .782-.35.782-.781v-3.124a.782.782 0 0 0-.782-.782h-3.125a.78.78 0 0 0-.78.782v3.124a.78.78 0 0 0 .78.781" />
    <path d="M27.155 28.563h3.125c.433 0 .782-.35.782-.781v-3.124a.782.782 0 0 0-.782-.782h-3.125a.78.78 0 0 0-.78.782v3.124c0 .431.35.781.78.781" />
    <path d="M33.718 28.563h3.125c.433 0 .782-.35.782-.781v-3.124a.782.782 0 0 0-.782-.782h-3.125a.78.78 0 0 0-.78.782v3.124a.78.78 0 0 0 .78.781" />
    <path d="M40.28 28.563h3.125c.433 0 .782-.35.782-.781v-3.124a.782.782 0 0 0-.782-.782H40.28a.78.78 0 0 0-.78.782v3.124c0 .431.35.781.78.781" />
    <path d="M20.593 22.548h3.125c.433 0 .782-.35.782-.782v-3.125c0-.43-.35-.78-.782-.78h-3.125a.78.78 0 0 0-.78.78v3.125a.78.78 0 0 0 .78.782" />
    <path d="M27.155 22.548h3.125c.433 0 .782-.35.782-.782v-3.125c0-.43-.35-.78-.782-.78h-3.125a.78.78 0 0 0-.78.78v3.125c0 .432.35.782.78.782" />
    <path d="M33.718 22.548h3.125c.433 0 .782-.35.782-.782v-3.125c0-.43-.35-.78-.782-.78h-3.125a.78.78 0 0 0-.78.78v3.125c0 .432.35.782.78.782" />
    <path d="M40.28 22.548h3.125c.433 0 .782-.35.782-.782v-3.125c0-.43-.35-.78-.782-.78H40.28a.78.78 0 0 0-.78.78v3.125c0 .432.35.782.78.782" />
  </symbol>
	
<!-- PUZZLE ICON -->
  <symbol id="icon-puzzle" viewBox="0 0 512 512">
  	<path d="M512,19.25c0-10.1-8.195-18.279-18.287-18.279H308.866v73.652c4.586-2.558,9.865-4.008,15.481-4.008
		c17.623,0,31.919,14.287,31.919,31.923c0,17.619-14.288,31.914-31.919,31.914c-5.616,0-10.895-1.458-15.481-3.999v73.644h73.652
		c-2.549,4.586-4.008,9.864-4.008,15.476c0,17.635,14.288,31.923,31.923,31.923c17.627,0,31.914-14.288,31.914-31.923
		c0-5.612-1.458-10.89-3.999-15.476H512V19.25z"/>
	<path d="M429.616,275.37h-92.794c-3.25,0-6.256,1.718-7.901,4.504l0.09-0.154l-0.106,0.171
		c-0.839,1.426-1.263,3.038-1.263,4.643c0,1.531,0.391,3.078,1.157,4.464l5.849,10.532c1.311,2.37,1.954,4.863,1.963,7.583
		c-0.008,4.203-1.621,8.08-4.586,11.062c-2.981,2.965-6.866,4.578-11.062,4.594c-4.203-0.017-8.088-1.629-11.078-4.594l0.012,0.017
		c-2.974-2.998-4.582-6.883-4.59-11.078c0.008-2.713,0.651-5.213,1.958-7.591l5.853-10.524c0.77-1.386,1.157-2.924,1.157-4.464
		c0-1.605-0.424-3.217-1.276-4.66c-1.649-2.793-4.655-4.504-7.9-4.504h-69.432v-37.184c12.548-0.196,24.4-5.14,33.278-14.035
		c9.09-9.066,14.125-21.227,14.116-34.072c0.008-12.862-5.03-25.023-14.116-34.081c-8.871-8.896-20.726-13.832-33.278-14.027V81.416
		c-0.004-5.066-4.11-9.172-9.176-9.172H34.548c-9.204-0.007-17.94,3.601-24.432,10.109C3.669,88.805,0.008,97.659,0,106.798v369.686
		c-0.008,9.196,3.608,17.928,10.116,24.428c6.452,6.443,15.293,10.108,24.432,10.117h369.726
		c9.115-0.008,17.961-3.674,24.404-10.117c6.509-6.5,10.117-15.224,10.109-24.428V284.542
		C438.788,279.476,434.682,275.37,429.616,275.37z M28.37,106.798c0-2.118,0.986-3.559,1.792-4.366
		c0.835-0.831,2.272-1.825,4.386-1.825h172.747v73.603c0,1.776,0.941,3.413,2.468,4.317c0.782,0.456,1.657,0.685,2.537,0.685
		c0.839,0,1.674-0.204,2.432-0.627l10.528-5.849c2.969-1.646,6.203-2.485,9.608-2.485c5.29,0,10.271,2.061,14.014,5.8
		c3.747,3.755,5.808,8.74,5.808,14.027c0,5.286-2.061,10.264-5.8,14.01c-3.751,3.747-8.732,5.808-14.022,5.808
		c-3.409,0-6.639-0.839-9.604-2.485l-10.536-5.849c-0.753-0.423-1.592-0.627-2.427-0.627c-0.88,0-1.756,0.228-2.537,0.693
		c-1.527,0.896-2.468,2.533-2.468,4.309v73.603h-45.575c0.09-1.133,0.134-2.264,0.134-3.38c0-11.77-4.582-22.824-12.894-31.124
		c-8.304-8.317-19.358-12.894-31.128-12.894c-11.766,0-22.819,4.578-31.12,12.886c-8.32,8.3-12.902,19.362-12.898,31.124
		c0,1.124,0.044,2.249,0.134,3.389H28.37V106.798z M207.296,482.666H34.548c-2.114,0-3.551-0.994-4.366-1.8
		c-0.826-0.831-1.812-2.273-1.812-4.382V303.725h73.599c1.772,0,3.413-0.937,4.313-2.46c0.9-1.532,0.925-3.422,0.062-4.969
		l-5.844-10.532c-1.65-2.974-2.485-6.207-2.489-9.604c0.004-5.287,2.07-10.271,5.8-14.019c3.758-3.738,8.74-5.808,14.022-5.808
		c5.282,0,10.264,2.07,14.01,5.8c3.743,3.755,5.808,8.74,5.812,14.018c-0.004,3.413-0.844,6.647-2.477,9.604l-5.857,10.532
		c-0.864,1.556-0.838,3.446,0.062,4.969c0.9,1.531,2.542,2.468,4.313,2.468h73.599v45.59c-1.133-0.089-2.26-0.13-3.376-0.13
		c-11.774,0-22.828,4.578-31.12,12.886c-8.324,8.308-12.902,19.362-12.894,31.124c-0.008,11.762,4.57,22.824,12.887,31.124
		c8.3,8.317,19.354,12.894,31.128,12.894c1.124,0,2.252-0.041,3.376-0.13V482.666z M410.424,476.484
		c0,2.109-0.993,3.543-1.808,4.366c-0.831,0.823-2.265,1.817-4.374,1.817H231.496v-73.603c0-1.776-0.936-3.413-2.468-4.309
		c-0.782-0.465-1.658-0.692-2.537-0.692c-0.835,0-1.674,0.204-2.428,0.627l-10.544,5.849c-2.961,1.645-6.191,2.484-9.6,2.484
		c-5.282,0-10.264-2.068-14.01-5.8c-3.743-3.747-5.808-8.732-5.812-14.019c0.004-5.294,2.07-10.271,5.808-14.018
		c3.744-3.739,8.724-5.808,14.015-5.816c3.385,0,6.618,0.839,9.6,2.484l10.54,5.857c0.758,0.424,1.592,0.628,2.432,0.628
		c0.879,0,1.755-0.229,2.537-0.684c1.527-0.904,2.468-2.542,2.468-4.318v-73.611h45.578c-0.089,1.132-0.134,2.265-0.134,3.388
		c-0.004,11.754,4.574,22.808,12.886,31.116c8.308,8.325,19.366,12.903,31.132,12.903c11.766,0,22.82-4.578,31.129-12.894
		c8.316-8.3,12.886-19.354,12.886-31.124c0-1.124-0.041-2.248-0.13-3.388h45.582V476.484z"/>
</symbol>

<!-- DASHBOARD ICON -->
<symbol id="icon-dashboard" viewBox="0 0 32 32">
  <polygon points="4 20 4 22 8.586 22 2 28.586 3.414 30 10 23.414 10 28 12 28 12 20 4 20"/>
  <rect x="24.0001" y="21" width="2" height="5"/>
  <rect x="20.0001" y="16" width="2" height="10"/>
  <rect x="16" y="18" width="2" height="8"/>
  <path d="M28,2H4A2.002,2.002,0,0,0,2,4V16H4V13H28.001l.001,15H16v2H28a2.0027,2.0027,0,0,0,2-2V4A2.0023,2.0023,0,0,0,28,2ZM12,11H4V4h8Zm2,0V4H28l.0007,7Z"/>
</symbol>

  <!-- LIGHTNING ICON -->
  <symbol id="icon-lightning" viewBox="0 0 24 24">
    <path d="M18,11.74a1,1,0,0,0-.52-.63L14.09,9.43,15,3.14a1,1,0,0,0-1.78-.75l-7,9a1,1,0,0,0-.18.87,1.05,1.05,0,0,0,.6.67l4.27,1.71L10,20.86a1,1,0,0,0,.63,1.07A.92.92,0,0,0,11,22a1,1,0,0,0,.83-.45l6-9A1,1,0,0,0,18,11.74Z"/>
  </symbol>

  <!-- SECURITY ICON -->
  <symbol id="icon-security" viewBox="0 0 24 24">
    <path d="M18.5002 4.11031L13.5102 2.24031C12.6802 1.93031 11.3202 1.93031 10.4902 2.24031L5.50016 4.11031C4.35016 4.54031 3.41016 5.90031 3.41016 7.12031V14.5503C3.41016 15.7303 4.19016 17.2803 5.14016 17.9903L9.44016 21.2003C10.8502 22.2603 13.1702 22.2603 14.5802 21.2003L18.8802 17.9903C19.8302 17.2803 20.6102 15.7303 20.6102 14.5503V7.12031C20.5902 5.90031 19.6502 4.54031 18.5002 4.11031ZM11.9302 7.03031C13.1102 7.03031 14.0702 7.99031 14.0702 9.17031C14.0702 10.3303 13.1602 11.2603 12.0102 11.3003H11.9902H11.9702C11.9502 11.3003 11.9302 11.3003 11.9102 11.3003C10.7102 11.2603 9.81016 10.3303 9.81016 9.17031C9.80016 7.99031 10.7602 7.03031 11.9302 7.03031ZM14.1902 16.3603C13.5802 16.7603 12.7902 16.9703 12.0002 16.9703C11.2102 16.9703 10.4102 16.7703 9.81016 16.3603C9.24016 15.9803 8.93016 15.4603 8.92016 14.8903C8.92016 14.3303 9.24016 13.7903 9.81016 13.4103C11.0202 12.6103 12.9902 12.6103 14.2002 13.4103C14.7702 13.7903 15.0902 14.3103 15.0902 14.8803C15.0802 15.4403 14.7602 15.9803 14.1902 16.3603Z"/>
  </symbol>

  <!-- OTHER ICONS (empty placeholders for now) -->
  <symbol id="icon-link" viewBox="0 0 24 24"></symbol>
  <symbol id="icon-dashboard" viewBox="0 0 24 24"></symbol>

</svg>
